<svg width="16" height="16" viewBox="0 0 16 16" fill="none" xmlns="http://www.w3.org/2000/svg">
<path d="M15.1054 0.276611H0.894536C0.55278 0.276611 0.276672 0.552719 0.276672 0.894475V15.1053C0.276672 15.4471 0.55278 15.7232 0.894536 15.7232H15.1054C15.4471 15.7232 15.7233 15.4471 15.7233 15.1053V0.894475C15.7233 0.552719 15.4471 0.276611 15.1054 0.276611ZM13.3213 4.78508H12.0875C11.1202 4.78508 10.9329 5.24462 10.9329 5.92041V7.40907H13.2421L12.9409 9.73957H10.9329V15.7232H8.52515V9.74151H6.5113V7.40907H8.52515V5.69064C8.52515 3.6961 9.7435 2.60905 11.5237 2.60905C12.3771 2.60905 13.1089 2.67276 13.3232 2.70173V4.78508H13.3213Z" fill="white"/>
</svg>
