<svg width="17" height="16" viewBox="0 0 17 16" fill="none" xmlns="http://www.w3.org/2000/svg">
<path d="M2.9509 1.99153C1.79222 3.1485 1.11831 4.70376 1.06649 6.34035C1.01468 7.97695 1.58886 9.57171 2.67204 10.7997C3.75521 12.0276 5.26585 12.7963 6.89612 12.9492C8.49667 13.0992 10.0943 12.6446 11.3751 11.6767L14.7063 15.0087L14.7063 15.0087C14.7891 15.0915 14.8875 15.1572 14.9957 15.2021C15.104 15.2469 15.22 15.27 15.3371 15.27C15.4543 15.27 15.5703 15.2469 15.6785 15.2021C15.7868 15.1572 15.8851 15.0915 15.9679 15.0087C16.0508 14.9258 16.1165 14.8275 16.1613 14.7192C16.2062 14.611 16.2292 14.495 16.2292 14.3779C16.2292 14.2607 16.2062 14.1447 16.1613 14.0365C16.1165 13.9282 16.0508 13.8299 15.9679 13.747L15.9679 13.747L12.6362 10.4161C13.6015 9.13509 14.0541 7.53858 13.9032 5.93955C13.7495 4.31066 12.981 2.80151 11.7541 1.71913C10.5271 0.636745 8.93391 0.0624375 7.29856 0.113042C5.66321 0.163647 4.10857 0.835356 2.9509 1.99153ZM2.9509 1.99153L3.02156 2.06229L2.9509 1.99153ZM10.7889 3.25378C11.2265 3.68428 11.5745 4.19715 11.8129 4.76281C12.0512 5.32848 12.1752 5.93574 12.1777 6.54956C12.1802 7.16339 12.0612 7.77164 11.8274 8.33923C11.5937 8.90681 11.2499 9.4225 10.8158 9.85654C10.3818 10.2906 9.86608 10.6344 9.29849 10.8682C8.73091 11.1019 8.12266 11.221 7.50883 11.2185C6.895 11.216 6.28774 11.092 5.72208 10.8536C5.15642 10.6152 4.64355 10.2672 4.21305 9.82966C3.35274 8.95522 2.87281 7.77625 2.8778 6.54956C2.8828 5.32288 3.37231 4.14786 4.23972 3.28045C5.10712 2.41304 6.28214 1.92353 7.50883 1.91854C8.73552 1.91354 9.91448 2.39347 10.7889 3.25378Z" fill="black" stroke="black" stroke-width="0.2"/>
</svg>
